<?xml version="1.0" encoding="utf-8"?>
<!-- Generator: Adobe Illustrator 24.1.0, SVG Export Plug-In . SVG Version: 6.00 Build 0)  -->
<svg version="1.1" id="Layer_1" xmlns="http://www.w3.org/2000/svg" xmlns:xlink="http://www.w3.org/1999/xlink" x="0px" y="0px"
	 viewBox="0 0 1000 1000" style="enable-background:new 0 0 1000 1000;" xml:space="preserve">
<style type="text/css">
	.st0{fill:url(#SVGID_1_);}
	.st1{fill:#1776D5;}
	.st2{fill:url(#SVGID_2_);}
</style>
<linearGradient id="SVGID_1_" gradientUnits="userSpaceOnUse" x1="794.9186" y1="663.0194" x2="275.5915" y2="94.1451">
	<stop  offset="7.071913e-02" style="stop-color:#1775D0"/>
	<stop  offset="0.289" style="stop-color:#176EC5"/>
	<stop  offset="0.67" style="stop-color:#175CA8"/>
	<stop  offset="1" style="stop-color:#17498A"/>
</linearGradient>
<path class="st0" d="M706.7,406.9c5,16.7-16.1,36.1-120.1,45c0,0,4,0.2,4,0.3c7.5,0,71.1,0,111.1-10.2c-1,8-1.9,13.7-4.9,23
	c-14.6,6.9-37.1,12.1-83,18.2c0,0,0,0,0,0.1c10.4,0.3,48.3,1,78-3.9c-3.4,8.6-4.8,13.7-10.1,23.4c-6.6,2.3-10.9,5.8-45.8,9.8
	l42.4-1.2c0,0-4.6,12.7-22,39c-11.2-24.9-28.6-50.7-43.6-70.5c-16.4-21.6-68.6-74.2-67.1-72.1C642.6,548.9,648,596.2,648,596.2
	s40.2-45.5,54.9-89.1c17.1-5.1,26.8-14.7,10.1-32.9c18.4-6.6,25.6-17.9,3.2-36.8c0,0,0,0,0,0c20.3-8.2,31.7-29.7,2.9-45.8
	c-9-5-21.1-10.3-38.8-13.7c-14.5-2.5-21.6-2.5-40.4-3.6C642.3,374.6,693.5,380.5,706.7,406.9L706.7,406.9z M652.3,254.8
	c0,0-22.7,25.2-54.5,41.2c0.9-0.7,72.9-59,25.2-100.6c-48-41.9-220.3-40.7-222.5,18.7c-0.9,25.4,26.5,65.9,93.9,135.7
	c-1.5-1.3-94.2-82.7-113.1-105.8c-9.7-14.2-41.6-47.7,29-77.1c0,0,44.3-19.1,109.1-17.5c35.1,0.9,76.3,7.8,119.8,27.1
	C639.1,176.5,701.5,202.6,652.3,254.8z M533.7,100c0,0-168-18.7-245.4,98.9c-31.2,47.4-15.6,76.6-1.5,126.7c6,21.3-8,42.1-18.5,61.5
	c-4.8,8.9-13,28-5.7,34.9c11.4,10.8,23.8,10.1,21.1,28.1c-0.5,3.1-2.2,5.9-3.5,8.8c-1.3,2.9-2.1,6.4-0.6,9.2c2.1,4,7.9,4.9,9.7,9.1
	c1.9,4.5-1.9,9.5-1.2,14.4c0.6,4.1,4.4,6.9,8.1,8.3c4,1.5,6.5,2.8,9.5,6.2c7,7.9,3.2,20.6,4,29.7c1,12,9.6,21.2,19.4,27.4
	c10.4,6.6,21.8,11.5,32.1,18.2c14.7,9.6,18.5,15,18.5,15s9.8-26.9,19.4-48.2c19.2-42.4,45-76.7,76.2-111.2
	c51.3-56.8,156.2-106.5,165.7-111.2c161-80.1,101.5-163.8,16.3-199.9C606,103.9,533.7,100,533.7,100z M689,273.5
	c-19.7,22.4-54.2,42-113.3,70.8C412.3,426.8,369,543.8,369,543.8s-44.9,4.6-42.2-25.3c0.4-4.6,1.4-14.1,0.8-18.7
	c-0.8-5.7-3.5-7.6-7.1-12.1c-3-3.7-8-5.6-9.5-10.6c-1-3.5,0.7-7.4-0.3-10.9c-1.3-4.7-6.6-7.3-7.7-12c-1.7-7,7-14,4.2-20.6
	c-2.8-6.8-7.1-5.8-13.3-8.5c-12.9-5.6-12.7-18.5-9.2-26.3c4-8.8,30.4-54.7,18-87.5c-13.3-35.2-18.4-62.4,0.1-96.9
	c31.6-58.9,86.2-83.5,144.6-96.6c65.1-14.7,133.8-4.2,194.8,22.7c28.1,12.4,56.9,32.3,66.3,64.6C716,231.1,705.7,254.4,689,273.5z"
	/>
<g>
	<g>
		<path class="st1" d="M193.9,864.1c-3.4,3.4-7.5,5-12.3,5c-4.8,0-8.9-1.7-12.3-5c-3.4-3.4-5-7.5-5-12.3c0-4.8,1.7-8.9,5-12.3
			c3.4-3.4,7.5-5,12.3-5c4.8,0,8.9,1.7,12.3,5c3.4,3.4,5,7.5,5,12.3C198.9,856.7,197.3,860.8,193.9,864.1z M173.2,860.4
			c2.3,2.3,5.1,3.4,8.4,3.4s6.1-1.1,8.4-3.4c2.3-2.3,3.4-5.1,3.4-8.6s-1.1-6.3-3.4-8.6c-2.3-2.3-5.1-3.4-8.4-3.4s-6.1,1.1-8.4,3.4
			c-2.3,2.3-3.4,5.1-3.4,8.6S170.9,858.1,173.2,860.4z M211.1,848.7c1.3-3,3.8-4.4,7.3-4.4v5.6c-2-0.1-3.7,0.3-5.2,1.4
			c-1.5,1.1-2.2,2.8-2.2,5.3v12h-5.2v-23.9h5.2V848.7z M242.3,844.7h5.2v23.9h-5.2v-3.4c-1.9,2.7-4.7,4.1-8.4,4.1
			c-3.3,0-6.1-1.2-8.4-3.7c-2.3-2.4-3.5-5.4-3.5-8.9c0-3.5,1.2-6.5,3.5-8.9c2.3-2.4,5.1-3.6,8.4-3.6c3.6,0,6.4,1.3,8.4,4V844.7z
			 M229.4,862.1c1.4,1.4,3.2,2.2,5.4,2.2c2.2,0,4-0.7,5.4-2.2c1.4-1.4,2.1-3.3,2.1-5.5s-0.7-4-2.1-5.5c-1.4-1.4-3.2-2.2-5.4-2.2
			c-2.2,0-4,0.7-5.4,2.2c-1.4,1.4-2.1,3.3-2.1,5.5S228,860.6,229.4,862.1z M255.8,868.5v-34.8h5.2v34.8H255.8z M311.2,866.9
			l-4.4,2.6l-3.2-3.4c-2.6,2.1-5.7,3.1-9.3,3.1c-3.4,0-6.2-0.9-8.3-2.6c-2.1-1.7-3.2-4.1-3.2-7.2c0-2,0.5-3.8,1.5-5.5
			c1-1.7,2.5-3,4.4-4.1c-1.3-1.7-1.9-3.7-1.9-5.8c0-2.8,1-5.1,2.9-6.8c2-1.7,4.4-2.6,7.2-2.6c2.3,0,4.4,0.6,6.2,1.8
			c1.8,1.2,3.2,2.9,4.1,5.2l-4.7,2.7c-0.4-1.3-1.2-2.4-2.1-3.1c-1-0.8-2.1-1.1-3.4-1.1c-1.3,0-2.5,0.4-3.4,1.2
			c-0.9,0.8-1.4,1.8-1.4,3.1c0,0.7,0.1,1.3,0.4,2c0.3,0.7,0.6,1.2,0.9,1.6c0.3,0.4,0.8,1,1.5,1.7l8.1,8.8c0.8-1.6,1.4-3.6,1.7-5.8
			l4.7,2.7c-0.6,2.7-1.5,5-2.8,7.1L311.2,866.9z M294.5,864c2.1,0,4-0.6,5.5-1.8l-8.2-8.8c-2.4,1.2-3.5,3-3.5,5.5
			c0,1.6,0.5,2.8,1.6,3.7C291,863.6,292.6,864,294.5,864z M357.9,844c2.7,0,4.9,0.9,6.5,2.6c1.7,1.7,2.5,4.1,2.5,7.1v14.8h-5.2
			v-14.5c0-1.7-0.4-2.9-1.2-3.8c-0.8-0.9-2-1.4-3.4-1.4c-1.6,0-2.9,0.5-3.8,1.6c-0.9,1-1.4,2.6-1.4,4.7v13.4h-5.2v-14.5
			c0-1.7-0.4-2.9-1.2-3.8c-0.8-0.9-1.9-1.4-3.3-1.4c-1.6,0-2.8,0.5-3.8,1.6c-1,1.1-1.5,2.6-1.5,4.7v13.4h-5.2v-23.9h5.2v2.9
			c1.5-2.3,3.8-3.5,6.8-3.5c3.1,0,5.3,1.3,6.8,3.8C352.1,845.3,354.6,844,357.9,844z M393.6,844.7h5.2v23.9h-5.2v-3.4
			c-1.9,2.7-4.7,4.1-8.4,4.1c-3.3,0-6.1-1.2-8.4-3.7c-2.3-2.4-3.5-5.4-3.5-8.9c0-3.5,1.2-6.5,3.5-8.9c2.3-2.4,5.1-3.6,8.4-3.6
			c3.6,0,6.4,1.3,8.4,4V844.7z M380.7,862.1c1.4,1.4,3.2,2.2,5.4,2.2c2.2,0,4-0.7,5.4-2.2c1.4-1.4,2.1-3.3,2.1-5.5s-0.7-4-2.1-5.5
			c-1.4-1.4-3.2-2.2-5.4-2.2c-2.2,0-4,0.7-5.4,2.2c-1.4,1.4-2.1,3.3-2.1,5.5S379.2,860.6,380.7,862.1z M428.4,868.5h-6l-5.9-8.2
			l-6,8.2h-6l9-12.3l-8.5-11.6h6l5.5,7.5l5.5-7.5h6l-8.5,11.6L428.4,868.5z M439.1,840.1c-0.7,0.7-1.4,1-2.3,1c-0.9,0-1.7-0.3-2.3-1
			c-0.7-0.7-1-1.4-1-2.3c0-0.9,0.3-1.7,1-2.3c0.6-0.7,1.4-1,2.3-1c0.9,0,1.7,0.3,2.3,1c0.6,0.7,1,1.4,1,2.3
			C440,838.7,439.7,839.5,439.1,840.1z M434.2,868.5v-23.9h5.2v23.9H434.2z M447.6,868.5v-34.8h5.2v34.8H447.6z M461,868.5v-34.8
			h5.2v34.8H461z M485.7,869.2c-3.5,0-6.5-1.2-8.9-3.6c-2.5-2.4-3.7-5.4-3.7-8.9s1.2-6.5,3.7-8.9c2.4-2.4,5.4-3.6,8.9-3.6
			c3.5,0,6.5,1.2,8.9,3.6c2.4,2.4,3.7,5.4,3.7,8.9s-1.2,6.5-3.7,8.9C492.2,867.9,489.2,869.2,485.7,869.2z M480.4,862
			c1.4,1.4,3.2,2.1,5.3,2.1c2.1,0,3.9-0.7,5.3-2.1c1.4-1.4,2.1-3.2,2.1-5.4c0-2.2-0.7-4-2.1-5.4c-1.4-1.4-3.2-2.1-5.3-2.1
			c-2.1,0-3.9,0.7-5.3,2.1c-1.4,1.4-2.1,3.2-2.1,5.4C478.2,858.8,478.9,860.6,480.4,862z M516.9,839.5c-3.8-0.3-5.6,1.2-5.6,4.7v0.5
			h5.6v5h-5.6v18.9h-5.2v-18.9h-3.6v-5h3.6v-0.5c0-3.3,0.9-5.8,2.7-7.5c1.8-1.7,4.5-2.4,8-2.2V839.5z M540,844.7h5.2v23.9H540v-3.4
			c-1.9,2.7-4.7,4.1-8.4,4.1c-3.3,0-6.1-1.2-8.4-3.7c-2.3-2.4-3.5-5.4-3.5-8.9c0-3.5,1.2-6.5,3.5-8.9c2.3-2.4,5.1-3.6,8.4-3.6
			c3.6,0,6.4,1.3,8.4,4V844.7z M527,862.1c1.4,1.4,3.2,2.2,5.4,2.2c2.2,0,4-0.7,5.4-2.2c1.4-1.4,2.1-3.3,2.1-5.5s-0.7-4-2.1-5.5
			c-1.4-1.4-3.2-2.2-5.4-2.2c-2.2,0-4,0.7-5.4,2.2c-1.4,1.4-2.1,3.3-2.1,5.5S525.6,860.6,527,862.1z M564.7,869.2
			c-3.6,0-6.6-1.2-9-3.6c-2.4-2.4-3.6-5.4-3.6-8.9c0-3.6,1.2-6.5,3.6-8.9c2.4-2.4,5.4-3.6,9-3.6c2.3,0,4.4,0.6,6.3,1.7
			c1.9,1.1,3.3,2.6,4.3,4.5l-4.4,2.6c-0.5-1.1-1.4-2-2.5-2.7c-1.1-0.7-2.4-1-3.8-1c-2.1,0-3.9,0.7-5.3,2.1c-1.4,1.4-2.1,3.2-2.1,5.3
			c0,2.1,0.7,3.9,2.1,5.3c1.4,1.4,3.2,2.1,5.3,2.1c1.4,0,2.7-0.3,3.8-1c1.1-0.7,2-1.6,2.6-2.7l4.4,2.5c-1,1.9-2.5,3.4-4.4,4.5
			C569.1,868.6,567,869.2,564.7,869.2z M586.3,840.1c-0.7,0.7-1.4,1-2.3,1c-0.9,0-1.7-0.3-2.3-1c-0.7-0.7-1-1.4-1-2.3
			c0-0.9,0.3-1.7,1-2.3c0.6-0.7,1.4-1,2.3-1c0.9,0,1.7,0.3,2.3,1c0.6,0.7,1,1.4,1,2.3C587.3,838.7,587,839.5,586.3,840.1z
			 M581.4,868.5v-23.9h5.2v23.9H581.4z M613.7,844.7h5.2v23.9h-5.2v-3.4c-1.9,2.7-4.7,4.1-8.4,4.1c-3.3,0-6.1-1.2-8.4-3.7
			c-2.3-2.4-3.5-5.4-3.5-8.9c0-3.5,1.2-6.5,3.5-8.9c2.3-2.4,5.1-3.6,8.4-3.6c3.6,0,6.4,1.3,8.4,4V844.7z M600.8,862.1
			c1.4,1.4,3.2,2.2,5.4,2.2c2.2,0,4-0.7,5.4-2.2c1.4-1.4,2.1-3.3,2.1-5.5s-0.7-4-2.1-5.5c-1.4-1.4-3.2-2.2-5.4-2.2
			c-2.2,0-4,0.7-5.4,2.2c-1.4,1.4-2.1,3.3-2.1,5.5S599.4,860.6,600.8,862.1z M627.2,868.5v-34.8h5.2v34.8H627.2z M659.5,851.3
			c0,0.8,0.4,1.4,1.3,1.9c0.9,0.5,1.9,0.9,3.2,1.2c1.3,0.3,2.5,0.7,3.8,1.2c1.3,0.4,2.3,1.2,3.2,2.3c0.9,1.1,1.3,2.4,1.3,4
			c0,2.3-0.9,4.1-2.6,5.4c-1.8,1.3-4,2-6.7,2c-2.4,0-4.4-0.5-6.1-1.5c-1.7-1-2.9-2.4-3.7-4.1l4.4-2.6c0.8,2.3,2.6,3.4,5.3,3.4
			c2.7,0,4.1-0.9,4.1-2.7c0-0.8-0.4-1.4-1.3-1.9c-0.9-0.5-1.9-0.9-3.2-1.2c-1.3-0.3-2.5-0.7-3.8-1.2c-1.3-0.4-2.3-1.2-3.2-2.2
			c-0.9-1-1.3-2.3-1.3-3.9c0-2.2,0.8-4,2.5-5.3c1.7-1.3,3.7-2,6.2-2c2,0,3.7,0.4,5.3,1.3c1.5,0.9,2.7,2.1,3.6,3.7l-4.3,2.4
			c-0.8-1.8-2.3-2.7-4.5-2.7c-1,0-1.8,0.2-2.5,0.6C659.8,849.8,659.5,850.4,659.5,851.3z M694.9,844.7h5.2v23.9h-5.2v-3.1
			c-1.6,2.5-4,3.7-7.4,3.7c-2.7,0-4.9-0.9-6.6-2.6c-1.7-1.7-2.5-4.2-2.5-7.2v-14.7h5.2v14.1c0,1.8,0.5,3.1,1.4,4.1
			c1,1,2.3,1.4,3.9,1.4c1.8,0,3.3-0.6,4.4-1.7c1.1-1.1,1.7-2.9,1.7-5.2V844.7z M713.5,848.7c1.3-3,3.8-4.4,7.3-4.4v5.6
			c-2-0.1-3.7,0.3-5.2,1.4c-1.5,1.1-2.2,2.8-2.2,5.3v12h-5.2v-23.9h5.2V848.7z M744.9,844.7h5.1v22.8c0,3.6-1.2,6.4-3.6,8.4
			c-2.4,1.9-5.3,2.9-8.7,2.9c-5.5,0-9.3-1.9-11.3-5.8l4.4-2.6c1.2,2.4,3.6,3.7,7,3.7c2.2,0,4-0.6,5.2-1.7c1.3-1.2,1.9-2.8,1.9-4.8
			v-2.9c-1.9,2.8-4.7,4.2-8.3,4.2c-3.4,0-6.2-1.2-8.5-3.6c-2.3-2.4-3.5-5.3-3.5-8.7c0-3.4,1.2-6.3,3.5-8.7c2.3-2.4,5.2-3.6,8.5-3.6
			c3.6,0,6.4,1.4,8.3,4.2V844.7z M731.9,861.7c1.4,1.4,3.3,2.1,5.4,2.1c2.2,0,4-0.7,5.4-2.1c1.4-1.4,2.2-3.2,2.2-5.3
			c0-2.1-0.7-3.9-2.2-5.3c-1.4-1.4-3.3-2.1-5.4-2.1c-2.2,0-4,0.7-5.4,2.1c-1.4,1.4-2.2,3.2-2.2,5.3
			C729.7,858.5,730.4,860.3,731.9,861.7z M762.3,858.8c0.4,1.8,1.3,3.2,2.6,4.2c1.4,1,3,1.5,5,1.5c2.7,0,4.8-1,6.2-3l4.2,2.5
			c-2.4,3.5-5.8,5.2-10.5,5.2c-3.9,0-7-1.2-9.4-3.6c-2.4-2.4-3.6-5.4-3.6-9c0-3.6,1.2-6.5,3.5-8.9c2.4-2.4,5.4-3.6,9.1-3.6
			c3.5,0,6.4,1.2,8.6,3.7c2.2,2.5,3.4,5.4,3.4,8.9c0,0.5-0.1,1.3-0.2,2.1H762.3z M762.3,854.6h14c-0.4-1.9-1.2-3.4-2.4-4.4
			c-1.3-1-2.7-1.5-4.4-1.5c-1.9,0-3.5,0.5-4.8,1.6C763.4,851.4,762.6,852.8,762.3,854.6z M799.4,869.2c-3.5,0-6.5-1.2-8.9-3.6
			c-2.5-2.4-3.7-5.4-3.7-8.9s1.2-6.5,3.7-8.9c2.4-2.4,5.4-3.6,8.9-3.6c3.5,0,6.5,1.2,8.9,3.6c2.4,2.4,3.7,5.4,3.7,8.9
			s-1.2,6.5-3.7,8.9C805.9,867.9,803,869.2,799.4,869.2z M794.1,862c1.4,1.4,3.2,2.1,5.3,2.1c2.1,0,3.9-0.7,5.3-2.1
			c1.4-1.4,2.1-3.2,2.1-5.4c0-2.2-0.7-4-2.1-5.4c-1.4-1.4-3.2-2.1-5.3-2.1c-2.1,0-3.9,0.7-5.3,2.1c-1.4,1.4-2.1,3.2-2.1,5.4
			C792,858.8,792.7,860.6,794.1,862z M831.5,844c2.7,0,4.9,0.9,6.6,2.6c1.7,1.7,2.5,4.2,2.5,7.2v14.7h-5.2v-14.1
			c0-1.8-0.5-3.1-1.4-4.1c-1-1-2.3-1.4-3.9-1.4c-1.8,0-3.3,0.6-4.4,1.7c-1.1,1.1-1.7,2.9-1.7,5.2v12.8H819v-23.9h5.2v3.1
			C825.7,845.3,828.2,844,831.5,844z"/>
	</g>
</g>
<linearGradient id="SVGID_2_" gradientUnits="userSpaceOnUse" x1="982.5179" y1="735.0946" x2="29.9991" y2="735.0946">
	<stop  offset="0" style="stop-color:#1775D0"/>
	<stop  offset="0.1559" style="stop-color:#176EC5"/>
	<stop  offset="0.4281" style="stop-color:#175CA8"/>
	<stop  offset="0.6638" style="stop-color:#17498A"/>
</linearGradient>
<path class="st2" d="M49.7,680c11.7,0,21.5,4.1,29.3,12.4c7.8,8.2,11.7,18.4,11.7,30.5c0,12-3.9,22.1-11.7,30.4
	c-7.8,8.3-17.6,12.4-29.3,12.4H16V680H49.7z M49.7,752.2c8.1,0,14.7-2.8,19.8-8.3c5.1-5.5,7.6-12.6,7.6-21c0-8.6-2.6-15.6-7.6-21.1
	c-5.1-5.5-11.7-8.3-19.8-8.3H30.1v58.7H49.7z M115.9,714.8c3.3-7.6,9.6-11.4,18.8-11.4v14.3c-5.1-0.3-9.5,0.9-13.2,3.6
	c-3.8,2.7-5.6,7.2-5.6,13.5v30.8h-13.2v-61.2h13.2V714.8z M207.6,680c8.1,0,14.8,2.7,20.3,8.1c5.4,5.4,8.1,12.1,8.1,20.1
	c0,7.9-2.7,14.6-8.1,20c-5.4,5.4-12.2,8.1-20.3,8.1h-17.5v29.4H176V680H207.6z M207.6,723.1c4.2,0,7.6-1.4,10.3-4.2
	c2.7-2.8,4-6.4,4-10.7c0-4.3-1.3-7.9-4-10.7c-2.7-2.8-6.1-4.2-10.3-4.2h-17.5v29.9H207.6z M271.9,767.3c-9,0-16.6-3.1-22.9-9.3
	c-6.3-6.2-9.4-13.8-9.4-22.9c0-9.1,3.1-16.7,9.4-22.9c6.3-6.2,13.9-9.3,22.9-9.3c9.1,0,16.7,3.1,22.9,9.3c6.2,6.2,9.4,13.8,9.4,22.9
	c0,9.1-3.1,16.7-9.4,22.9C288.6,764.2,281,767.3,271.9,767.3z M258.4,748.9c3.7,3.7,8.2,5.5,13.6,5.5s9.9-1.8,13.6-5.5
	c3.7-3.7,5.5-8.3,5.5-13.8c0-5.5-1.8-10.2-5.5-13.8c-3.7-3.7-8.2-5.5-13.6-5.5s-9.9,1.8-13.6,5.5c-3.7,3.7-5.5,8.3-5.5,13.8
	C252.8,740.6,254.7,745.3,258.4,748.9z M357.5,704.5h13.2v61.2h-13.2v-7.8c-4,6.3-10.3,9.4-19,9.4c-7,0-12.7-2.2-17-6.7
	c-4.3-4.5-6.5-10.6-6.5-18.5v-37.6h13.2v36.2c0,4.6,1.2,8.1,3.7,10.5c2.4,2.4,5.8,3.7,10,3.7c4.7,0,8.4-1.4,11.3-4.3
	c2.9-2.9,4.3-7.3,4.3-13.3V704.5z M427.4,704.5h14.1l-23.5,63.2c-5.9,15.8-15.8,23.3-29.9,22.5v-12.4c4.2,0.2,7.5-0.6,10-2.6
	c2.5-2,4.6-5.1,6.2-9.4l0.6-1.2L379,704.5h14.4l18.2,44.4L427.4,704.5z M495.8,704.5H509v61.2h-13.2v-8.8
	c-5,6.9-12.1,10.4-21.4,10.4c-8.4,0-15.6-3.1-21.5-9.4c-6-6.2-8.9-13.8-8.9-22.8c0-9.1,3-16.7,8.9-22.9c6-6.2,13.1-9.3,21.5-9.3
	c9.3,0,16.4,3.4,21.4,10.3V704.5z M462.6,749.1c3.7,3.7,8.3,5.6,13.8,5.6c5.5,0,10.2-1.9,13.8-5.6c3.7-3.7,5.5-8.4,5.5-14
	c0-5.6-1.8-10.3-5.5-14c-3.7-3.7-8.3-5.6-13.8-5.6c-5.5,0-10.2,1.9-13.8,5.6c-3.7,3.7-5.5,8.4-5.5,14
	C457.1,740.7,458.9,745.4,462.6,749.1z M606.3,721.3c3.8,2,6.7,4.7,8.8,8.1c2.1,3.4,3.2,7.4,3.2,11.9c0,7-2.5,12.9-7.5,17.5
	c-5,4.7-11.1,7-18.2,7h-36.7V680h34c7,0,13,2.3,17.8,6.8c4.9,4.5,7.3,10.2,7.3,17C615,711.2,612.1,717,606.3,721.3z M589.9,693.2
	H570v22.5h19.9c3.1,0,5.7-1.1,7.8-3.2c2.1-2.2,3.2-4.8,3.2-8c0-3.2-1.1-5.9-3.2-8C595.6,694.3,593,693.2,589.9,693.2z M592.6,752.5
	c3.3,0,6-1.2,8.3-3.5c2.2-2.3,3.4-5.2,3.4-8.5c0-3.3-1.1-6.2-3.4-8.5c-2.2-2.3-5-3.5-8.3-3.5H570v24H592.6z M678.8,704.5H692v61.2
	h-13.2v-8.8c-5,6.9-12.1,10.4-21.4,10.4c-8.4,0-15.6-3.1-21.5-9.4c-6-6.2-8.9-13.8-8.9-22.8c0-9.1,3-16.7,8.9-22.9
	c6-6.2,13.1-9.3,21.5-9.3c9.3,0,16.4,3.4,21.4,10.3V704.5z M645.6,749.1c3.7,3.7,8.3,5.6,13.8,5.6c5.5,0,10.2-1.9,13.8-5.6
	c3.7-3.7,5.5-8.4,5.5-14c0-5.6-1.8-10.3-5.5-14c-3.7-3.7-8.3-5.6-13.8-5.6c-5.5,0-10.2,1.9-13.8,5.6c-3.7,3.7-5.5,8.4-5.5,14
	C640.1,740.7,641.9,745.4,645.6,749.1z M756.1,704.5h13v58.4c0,9.3-3.1,16.4-9.2,21.4c-6.1,5-13.5,7.5-22.3,7.5
	c-14.1,0-23.8-4.9-29-14.8l11.4-6.6c3.2,6.3,9.1,9.4,17.9,9.4c5.7,0,10.2-1.5,13.4-4.5c3.2-3,4.8-7.1,4.8-12.4v-7.5
	c-5,7.1-12.1,10.6-21.3,10.6c-8.6,0-16-3.1-21.9-9.2c-6-6.2-8.9-13.6-8.9-22.3c0-8.7,3-16.2,8.9-22.3c6-6.2,13.3-9.2,21.9-9.2
	c9.2,0,16.3,3.5,21.3,10.6V704.5z M722.8,748.2c3.7,3.7,8.3,5.5,13.9,5.5c5.5,0,10.2-1.8,13.9-5.5c3.7-3.7,5.6-8.2,5.6-13.7
	c0-5.5-1.9-10-5.6-13.7c-3.7-3.7-8.3-5.5-13.9-5.5c-5.6,0-10.2,1.8-13.9,5.5c-3.7,3.7-5.6,8.2-5.6,13.7
	C717.2,740,719,744.5,722.8,748.2z M816.7,702.9c7,0,12.7,2.2,17,6.7c4.3,4.5,6.5,10.6,6.5,18.5v37.6H827v-36.2
	c0-4.6-1.2-8.1-3.7-10.5c-2.4-2.4-5.8-3.7-10-3.7c-4.7,0-8.4,1.4-11.3,4.3c-2.9,2.9-4.3,7.3-4.3,13.3v32.8h-13.2V680h13.2v32.3
	C801.7,706,808,702.9,816.7,702.9z M864.8,740.7c1,4.7,3.2,8.2,6.7,10.7c3.5,2.5,7.8,3.7,12.9,3.7c7,0,12.3-2.5,15.8-7.6l10.9,6.4
	c-6,8.9-15,13.3-26.8,13.3c-10,0-18-3-24.1-9.1c-6.1-6.1-9.2-13.8-9.2-23.1c0-9.1,3-16.8,9.1-22.9c6-6.2,13.8-9.2,23.3-9.2
	c9,0,16.3,3.1,22.1,9.4c5.8,6.3,8.6,13.9,8.6,22.9c0,1.4-0.2,3.2-0.5,5.5H864.8z M864.7,730h36c-0.9-5-3-8.7-6.2-11.3
	c-3.2-2.5-7-3.8-11.3-3.8c-4.9,0-9,1.3-12.2,4C867.6,721.6,865.6,725.3,864.7,730z M938.8,714.8c3.3-7.6,9.6-11.4,18.8-11.4v14.3
	c-5.1-0.3-9.5,0.9-13.2,3.6c-3.8,2.7-5.6,7.2-5.6,13.5v30.8h-13.2v-61.2h13.2V714.8z M980,692.8c-1.7,1.7-3.7,2.5-5.9,2.5
	c-2.3,0-4.3-0.8-5.9-2.5c-1.7-1.7-2.5-3.7-2.5-5.9c0-2.3,0.8-4.3,2.4-5.9c1.6-1.7,3.6-2.5,6-2.5c2.4,0,4.4,0.8,6,2.5
	c1.6,1.7,2.4,3.7,2.4,5.9C982.5,689.2,981.7,691.1,980,692.8z M967.5,765.7v-61.2h13.2v61.2H967.5z"/>
</svg>
