<?xml version="1.0" encoding="utf-8"?>
<!-- Generator: Adobe Illustrator 24.2.3, SVG Export Plug-In . SVG Version: 6.00 Build 0)  -->
<svg version="1.1" id="Layer_1" xmlns="http://www.w3.org/2000/svg" xmlns:xlink="http://www.w3.org/1999/xlink" x="0px" y="0px"
	 viewBox="0 0 966.5 692.8" style="enable-background:new 0 0 966.5 692.8;" xml:space="preserve">
<style type="text/css">
	.st0{fill:url(#SVGID_1_);}
	.st1{fill:url(#SVGID_2_);}
</style>
<linearGradient id="SVGID_1_" gradientUnits="userSpaceOnUse" x1="778.848" y1="237.9142" x2="259.5209" y2="806.7885" gradientTransform="matrix(1 0 0 -1 0 801.996)">
	<stop  offset="7.071913e-02" style="stop-color:#1775D0"/>
	<stop  offset="0.289" style="stop-color:#176EC5"/>
	<stop  offset="0.67" style="stop-color:#175CA8"/>
	<stop  offset="1" style="stop-color:#17498A"/>
</linearGradient>
<path class="st0" d="M690.7,307.9c5,16.7-16.1,36.1-120.1,45c0,0,4,0.2,4,0.3c7.5,0,71.1,0,111.1-10.2c-1,8-1.9,13.7-4.9,23
	c-14.6,6.9-37.1,12.1-83,18.2c0,0,0,0,0,0.1c10.4,0.3,48.3,1,78-3.9c-3.4,8.6-4.8,13.7-10.1,23.4c-6.6,2.3-10.9,5.8-45.8,9.8
	l42.4-1.2c0,0-4.6,12.7-22,39c-11.2-24.9-28.6-50.7-43.6-70.5c-16.4-21.6-68.6-74.2-67.1-72.1C626.6,449.9,632,497.2,632,497.2
	s40.2-45.5,54.9-89.1c17.1-5.1,26.8-14.7,10.1-32.9c18.4-6.6,25.6-17.9,3.2-36.8l0,0c20.3-8.2,31.7-29.7,2.9-45.8
	c-9-5-21.1-10.3-38.8-13.7c-14.5-2.5-21.6-2.5-40.4-3.6C626.3,275.6,677.5,281.5,690.7,307.9L690.7,307.9z M636.3,155.8
	c0,0-22.7,25.2-54.5,41.2c0.9-0.7,72.9-59,25.2-100.6c-48-41.9-220.3-40.7-222.5,18.7c-0.9,25.4,26.5,65.9,93.9,135.7
	c-1.5-1.3-94.2-82.7-113.1-105.8c-9.7-14.2-41.6-47.7,29-77.1c0,0,44.3-19.1,109.1-17.5c35.1,0.9,76.3,7.8,119.8,27.1
	C623.1,77.5,685.5,103.6,636.3,155.8z M517.7,1c0,0-168-18.7-245.4,98.9c-31.2,47.4-15.6,76.6-1.5,126.7c6,21.3-8,42.1-18.5,61.5
	c-4.8,8.9-13,28-5.7,34.9c11.4,10.8,23.8,10.1,21.1,28.1c-0.5,3.1-2.2,5.9-3.5,8.8s-2.1,6.4-0.6,9.2c2.1,4,7.9,4.9,9.7,9.1
	c1.9,4.5-1.9,9.5-1.2,14.4c0.6,4.1,4.4,6.9,8.1,8.3c4,1.5,6.5,2.8,9.5,6.2c7,7.9,3.2,20.6,4,29.7c1,12,9.6,21.2,19.4,27.4
	c10.4,6.6,21.8,11.5,32.1,18.2c14.7,9.6,18.5,15,18.5,15s9.8-26.9,19.4-48.2c19.2-42.4,45-76.7,76.2-111.2
	c51.3-56.8,156.2-106.5,165.7-111.2C786,146.7,726.5,63,641.3,26.9C590,4.9,517.7,1,517.7,1z M673,174.5
	c-19.7,22.4-54.2,42-113.3,70.8C396.3,327.8,353,444.8,353,444.8s-44.9,4.6-42.2-25.3c0.4-4.6,1.4-14.1,0.8-18.7
	c-0.8-5.7-3.5-7.6-7.1-12.1c-3-3.7-8-5.6-9.5-10.6c-1-3.5,0.7-7.4-0.3-10.9c-1.3-4.7-6.6-7.3-7.7-12c-1.7-7,7-14,4.2-20.6
	c-2.8-6.8-7.1-5.8-13.3-8.5c-12.9-5.6-12.7-18.5-9.2-26.3c4-8.8,30.4-54.7,18-87.5c-13.3-35.2-18.4-62.4,0.1-96.9
	c31.6-58.9,86.2-83.5,144.6-96.6c65.1-14.7,133.8-4.2,194.8,22.7c28.1,12.4,56.9,32.3,66.3,64.6C700,132.1,689.7,155.4,673,174.5z"
	/>
<linearGradient id="SVGID_2_" gradientUnits="userSpaceOnUse" x1="966.5" y1="165.848" x2="13.9812" y2="165.848" gradientTransform="matrix(1 0 0 -1 0 801.996)">
	<stop  offset="0" style="stop-color:#1775D0"/>
	<stop  offset="0.1559" style="stop-color:#176EC5"/>
	<stop  offset="0.4281" style="stop-color:#175CA8"/>
	<stop  offset="0.6638" style="stop-color:#17498A"/>
</linearGradient>
<path class="st1" d="M33.7,581c11.7,0,21.5,4.1,29.3,12.4c7.8,8.2,11.7,18.4,11.7,30.5c0,12-3.9,22.1-11.7,30.4
	c-7.8,8.3-17.6,12.4-29.3,12.4H0V581H33.7z M33.7,653.2c8.1,0,14.7-2.8,19.8-8.3s7.6-12.6,7.6-21c0-8.6-2.6-15.6-7.6-21.1
	c-5.1-5.5-11.7-8.3-19.8-8.3H14.1v58.7L33.7,653.2L33.7,653.2z M99.9,615.8c3.3-7.6,9.6-11.4,18.8-11.4v14.3
	c-5.1-0.3-9.5,0.9-13.2,3.6c-3.8,2.7-5.6,7.2-5.6,13.5v30.8H86.7v-61.2h13.2V615.8z M191.6,581c8.1,0,14.8,2.7,20.3,8.1
	c5.4,5.4,8.1,12.1,8.1,20.1c0,7.9-2.7,14.6-8.1,20c-5.4,5.4-12.2,8.1-20.3,8.1h-17.5v29.4H160V581H191.6z M191.6,624.1
	c4.2,0,7.6-1.4,10.3-4.2s4-6.4,4-10.7s-1.3-7.9-4-10.7s-6.1-4.2-10.3-4.2h-17.5v29.9L191.6,624.1L191.6,624.1z M255.9,668.3
	c-9,0-16.6-3.1-22.9-9.3c-6.3-6.2-9.4-13.8-9.4-22.9c0-9.1,3.1-16.7,9.4-22.9c6.3-6.2,13.9-9.3,22.9-9.3c9.1,0,16.7,3.1,22.9,9.3
	c6.2,6.2,9.4,13.8,9.4,22.9c0,9.1-3.1,16.7-9.4,22.9C272.6,665.2,265,668.3,255.9,668.3z M242.4,649.9c3.7,3.7,8.2,5.5,13.6,5.5
	s9.9-1.8,13.6-5.5s5.5-8.3,5.5-13.8s-1.8-10.2-5.5-13.8c-3.7-3.7-8.2-5.5-13.6-5.5s-9.9,1.8-13.6,5.5c-3.7,3.7-5.5,8.3-5.5,13.8
	C236.8,641.6,238.7,646.3,242.4,649.9z M341.5,605.5h13.2v61.2h-13.2v-7.8c-4,6.3-10.3,9.4-19,9.4c-7,0-12.7-2.2-17-6.7
	S299,651,299,643.1v-37.6h13.2v36.2c0,4.6,1.2,8.1,3.7,10.5c2.4,2.4,5.8,3.7,10,3.7c4.7,0,8.4-1.4,11.3-4.3
	c2.9-2.9,4.3-7.3,4.3-13.3V605.5z M411.4,605.5h14.1L402,668.7c-5.9,15.8-15.8,23.3-29.9,22.5v-12.4c4.2,0.2,7.5-0.6,10-2.6
	s4.6-5.1,6.2-9.4l0.6-1.2L363,605.5h14.4l18.2,44.4L411.4,605.5z M479.8,605.5H493v61.2h-13.2v-8.8c-5,6.9-12.1,10.4-21.4,10.4
	c-8.4,0-15.6-3.1-21.5-9.4c-6-6.2-8.9-13.8-8.9-22.8c0-9.1,3-16.7,8.9-22.9c6-6.2,13.1-9.3,21.5-9.3c9.3,0,16.4,3.4,21.4,10.3V605.5
	z M446.6,650.1c3.7,3.7,8.3,5.6,13.8,5.6s10.2-1.9,13.8-5.6c3.7-3.7,5.5-8.4,5.5-14s-1.8-10.3-5.5-14s-8.3-5.6-13.8-5.6
	s-10.2,1.9-13.8,5.6c-3.7,3.7-5.5,8.4-5.5,14C441.1,641.7,442.9,646.4,446.6,650.1z M590.3,622.3c3.8,2,6.7,4.7,8.8,8.1
	c2.1,3.4,3.2,7.4,3.2,11.9c0,7-2.5,12.9-7.5,17.5c-5,4.7-11.1,7-18.2,7h-36.7V581h34c7,0,13,2.3,17.8,6.8c4.9,4.5,7.3,10.2,7.3,17
	C599,612.2,596.1,618,590.3,622.3z M573.9,594.2H554v22.5h19.9c3.1,0,5.7-1.1,7.8-3.2c2.1-2.2,3.2-4.8,3.2-8s-1.1-5.9-3.2-8
	C579.6,595.3,577,594.2,573.9,594.2z M576.6,653.5c3.3,0,6-1.2,8.3-3.5c2.2-2.3,3.4-5.2,3.4-8.5s-1.1-6.2-3.4-8.5
	c-2.2-2.3-5-3.5-8.3-3.5H554v24H576.6z M662.8,605.5H676v61.2h-13.2v-8.8c-5,6.9-12.1,10.4-21.4,10.4c-8.4,0-15.6-3.1-21.5-9.4
	c-6-6.2-8.9-13.8-8.9-22.8c0-9.1,3-16.7,8.9-22.9c6-6.2,13.1-9.3,21.5-9.3c9.3,0,16.4,3.4,21.4,10.3V605.5z M629.6,650.1
	c3.7,3.7,8.3,5.6,13.8,5.6s10.2-1.9,13.8-5.6c3.7-3.7,5.5-8.4,5.5-14s-1.8-10.3-5.5-14s-8.3-5.6-13.8-5.6s-10.2,1.9-13.8,5.6
	c-3.7,3.7-5.5,8.4-5.5,14C624.1,641.7,625.9,646.4,629.6,650.1z M740.1,605.5h13v58.4c0,9.3-3.1,16.4-9.2,21.4
	c-6.1,5-13.5,7.5-22.3,7.5c-14.1,0-23.8-4.9-29-14.8l11.4-6.6c3.2,6.3,9.1,9.4,17.9,9.4c5.7,0,10.2-1.5,13.4-4.5s4.8-7.1,4.8-12.4
	v-7.5c-5,7.1-12.1,10.6-21.3,10.6c-8.6,0-16-3.1-21.9-9.2c-6-6.2-8.9-13.6-8.9-22.3s3-16.2,8.9-22.3c6-6.2,13.3-9.2,21.9-9.2
	c9.2,0,16.3,3.5,21.3,10.6L740.1,605.5L740.1,605.5z M706.8,649.2c3.7,3.7,8.3,5.5,13.9,5.5c5.5,0,10.2-1.8,13.9-5.5
	s5.6-8.2,5.6-13.7s-1.9-10-5.6-13.7c-3.7-3.7-8.3-5.5-13.9-5.5c-5.6,0-10.2,1.8-13.9,5.5s-5.6,8.2-5.6,13.7S703,645.5,706.8,649.2z
	 M800.7,603.9c7,0,12.7,2.2,17,6.7s6.5,10.6,6.5,18.5v37.6H811v-36.2c0-4.6-1.2-8.1-3.7-10.5c-2.4-2.4-5.8-3.7-10-3.7
	c-4.7,0-8.4,1.4-11.3,4.3c-2.9,2.9-4.3,7.3-4.3,13.3v32.8h-13.2V581h13.2v32.3C785.7,607,792,603.9,800.7,603.9z M848.8,641.7
	c1,4.7,3.2,8.2,6.7,10.7s7.8,3.7,12.9,3.7c7,0,12.3-2.5,15.8-7.6l10.9,6.4c-6,8.9-15,13.3-26.8,13.3c-10,0-18-3-24.1-9.1
	S835,645.3,835,636c0-9.1,3-16.8,9.1-22.9c6-6.2,13.8-9.2,23.3-9.2c9,0,16.3,3.1,22.1,9.4c5.8,6.3,8.6,13.9,8.6,22.9
	c0,1.4-0.2,3.2-0.5,5.5L848.8,641.7L848.8,641.7z M848.7,631h36c-0.9-5-3-8.7-6.2-11.3c-3.2-2.5-7-3.8-11.3-3.8c-4.9,0-9,1.3-12.2,4
	C851.6,622.6,849.6,626.3,848.7,631z M922.8,615.8c3.3-7.6,9.6-11.4,18.8-11.4v14.3c-5.1-0.3-9.5,0.9-13.2,3.6
	c-3.8,2.7-5.6,7.2-5.6,13.5v30.8h-13.2v-61.2h13.2V615.8z M964,593.8c-1.7,1.7-3.7,2.5-5.9,2.5c-2.3,0-4.3-0.8-5.9-2.5
	c-1.7-1.7-2.5-3.7-2.5-5.9c0-2.3,0.8-4.3,2.4-5.9c1.6-1.7,3.6-2.5,6-2.5s4.4,0.8,6,2.5s2.4,3.7,2.4,5.9
	C966.5,590.2,965.7,592.1,964,593.8z M951.5,666.7v-61.2h13.2v61.2H951.5z"/>
</svg>
