<?xml version="1.0" encoding="utf-8"?>
<!-- Generator: Adobe Illustrator 24.2.3, SVG Export Plug-In . SVG Version: 6.00 Build 0)  -->
<svg version="1.1" id="Layer_1" focusable="false" xmlns="http://www.w3.org/2000/svg" xmlns:xlink="http://www.w3.org/1999/xlink"
	 x="0px" y="0px" viewBox="0 0 652 512" style="enable-background:new 0 0 652 512;" xml:space="preserve">
<style type="text/css">
	.st0{fill:#FFFFFF;}
</style>
<path class="st0" d="M23.3,132h605.4c12.9,0,23.3-7.2,23.3-16V76c0-8.8-10.4-16-23.3-16H23.3C10.4,60,0,67.2,0,76v40
	C0,124.8,10.4,132,23.3,132z M23.3,292h605.4c12.9,0,23.3-7.2,23.3-16v-40c0-8.8-10.4-16-23.3-16H23.3C10.4,220,0,227.2,0,236v40
	C0,284.8,10.4,292,23.3,292z M218.4,452H636c8.9,0,16.1-7.2,16.1-16v-40c0-8.8-7.2-16-16.1-16H218.4c-8.9,0-16.1,7.2-16.1,16v40
	C202.3,444.8,209.5,452,218.4,452z"/>
</svg>
